HIERARCHY
ROOT Hips
{
    OFFSET   0.000000   0.000000   0.000000
    CHANNELS 6 Xposition Yposition Zposition Zrotation Xrotation Yrotation
    JOINT Chest
    {
        OFFSET   0.000000   8.007230   0.000000
        CHANNELS 3 Zrotation Xrotation Yrotation
        JOINT Chest2
        {
            OFFSET   0.000000  22.077100   0.000000
            CHANNELS 3 Zrotation Xrotation Yrotation
            JOINT Neck
            {
                OFFSET   0.000000  23.254800  -0.000021
                CHANNELS 3 Zrotation Xrotation Yrotation
                JOINT Head
                {
                    OFFSET   0.000000  14.370000   1.956610
                    CHANNELS 3 Zrotation Xrotation Yrotation
                    End Site
                    {
                        OFFSET   0.000000  19.566000   0.000000
                    }
                }
            }
            JOINT LeftCollar
            {
                OFFSET   3.911900  19.017000  -0.467063
                CHANNELS 3 Zrotation Xrotation Yrotation
                JOINT LeftShoulder
                {
                    OFFSET  10.383700   0.000000   0.000000
                    CHANNELS 3 Zrotation Xrotation Yrotation
                    JOINT LeftElbow
                    {
                        OFFSET  26.662100   0.001529   0.000325
                        CHANNELS 3 Zrotation Xrotation Yrotation
                        JOINT LeftWrist
                        {
                            OFFSET  28.869000  -0.000011  -0.000096
                            CHANNELS 3 Zrotation Xrotation Yrotation
                            JOINT LeftFinger0
                            {
                                OFFSET   2.044650  -2.323460   3.252850
                                CHANNELS 3 Zrotation Xrotation Yrotation
                                JOINT LeftFinger01
                                {
                                    OFFSET   3.088130   0.000000   0.000000
                                    CHANNELS 3 Zrotation Xrotation Yrotation
                                    JOINT LeftFinger02
                                    {
                                        OFFSET   2.639460   0.000000   0.000000
                                        CHANNELS 3 Zrotation Xrotation Yrotation
                                        End Site
                                        {
                                            OFFSET   2.582190   0.000000   0.000000
                                        }
                                    }
                                }
                            }
                            JOINT LeftFinger1
                            {
                                OFFSET   8.364480   0.000000   3.252850
                                CHANNELS 3 Zrotation Xrotation Yrotation
                                JOINT LeftFinger11
                                {
                                    OFFSET   4.646930   0.000000   0.000000
                                    CHANNELS 3 Zrotation Xrotation Yrotation
                                    JOINT LeftFinger12
                                    {
                                        OFFSET   2.323460   0.000000   0.000000
                                        CHANNELS 3 Zrotation Xrotation Yrotation
                                        End Site
                                        {
                                            OFFSET   2.273050   0.000000   0.000000
                                        }
                                    }
                                }
                            }
                            JOINT LeftFinger2
                            {
                                OFFSET   8.364480   0.000016   1.078090
                                CHANNELS 3 Zrotation Xrotation Yrotation
                                JOINT LeftFinger21
                                {
                                    OFFSET   5.111620   0.000000   0.000000
                                    CHANNELS 3 Zrotation Xrotation Yrotation
                                    JOINT LeftFinger22
                                    {
                                        OFFSET   2.788160   0.000017   0.000000
                                        CHANNELS 3 Zrotation Xrotation Yrotation
                                        End Site
                                        {
                                            OFFSET   2.727660   0.000000   0.000000
                                        }
                                    }
                                }
                            }
                            JOINT LeftFinger3
                            {
                                OFFSET   7.899780   0.000015  -1.078090
                                CHANNELS 3 Zrotation Xrotation Yrotation
                                JOINT LeftFinger31
                                {
                                    OFFSET   4.646920   0.000000   0.000000
                                    CHANNELS 3 Zrotation Xrotation Yrotation
                                    JOINT LeftFinger32
                                    {
                                        OFFSET   2.323470   0.000000   0.000000
                                        CHANNELS 3 Zrotation Xrotation Yrotation
                                        End Site
                                        {
                                            OFFSET   2.273050   0.000000   0.000000
                                        }
                                    }
                                }
                            }
                            JOINT LeftFinger4
                            {
                                OFFSET   7.435090   0.000000  -3.252850
                                CHANNELS 3 Zrotation Xrotation Yrotation
                                JOINT LeftFinger41
                                {
                                    OFFSET   3.717550   0.000000   0.000000
                                    CHANNELS 3 Zrotation Xrotation Yrotation
                                    JOINT LeftFinger42
                                    {
                                        OFFSET   1.858760   0.000000   0.000000
                                        CHANNELS 3 Zrotation Xrotation Yrotation
                                        End Site
                                        {
                                            OFFSET   1.818440   0.000000   0.000000
                                        }
                                    }
                                }
                            }
                        }
                    }
                }
            }
            JOINT RightCollar
            {
                OFFSET  -3.911900  19.017000  -0.467062
                CHANNELS 3 Zrotation Xrotation Yrotation
                JOINT RightShoulder
                {
                    OFFSET -10.383700   0.000015   0.000000
                    CHANNELS 3 Zrotation Xrotation Yrotation
                    JOINT RightElbow
                    {
                        OFFSET -26.662100   0.001341   0.000385
                        CHANNELS 3 Zrotation Xrotation Yrotation
                        JOINT RightWrist
                        {
                            OFFSET -28.869000   0.000025  -0.000080
                            CHANNELS 3 Zrotation Xrotation Yrotation
                            JOINT RightFinger0
                            {
                                OFFSET  -2.044650  -2.323490   3.252850
                                CHANNELS 3 Zrotation Xrotation Yrotation
                                JOINT RightFinger01
                                {
                                    OFFSET  -3.088130   0.000000   0.000000
                                    CHANNELS 3 Zrotation Xrotation Yrotation
                                    JOINT RightFinger02
                                    {
                                        OFFSET  -2.639460   0.000000   0.000000
                                        CHANNELS 3 Zrotation Xrotation Yrotation
                                        End Site
                                        {
                                            OFFSET  -2.582190   0.000000   0.000000
                                        }
                                    }
                                }
                            }
                            JOINT RightFinger1
                            {
                                OFFSET  -8.364480   0.000000   3.252850
                                CHANNELS 3 Zrotation Xrotation Yrotation
                                JOINT RightFinger11
                                {
                                    OFFSET  -4.646930   0.000000   0.000000
                                    CHANNELS 3 Zrotation Xrotation Yrotation
                                    JOINT RightFinger12
                                    {
                                        OFFSET  -2.323470   0.000000   0.000000
                                        CHANNELS 3 Zrotation Xrotation Yrotation
                                        End Site
                                        {
                                            OFFSET  -2.273050   0.000000   0.000000
                                        }
                                    }
                                }
                            }
                            JOINT RightFinger2
                            {
                                OFFSET  -8.364480   0.000000   1.078090
                                CHANNELS 3 Zrotation Xrotation Yrotation
                                JOINT RightFinger21
                                {
                                    OFFSET  -5.111610   0.000000   0.000000
                                    CHANNELS 3 Zrotation Xrotation Yrotation
                                    JOINT RightFinger22
                                    {
                                        OFFSET  -2.788160   0.000000   0.000000
                                        CHANNELS 3 Zrotation Xrotation Yrotation
                                        End Site
                                        {
                                            OFFSET  -2.727660   0.000000   0.000000
                                        }
                                    }
                                }
                            }
                            JOINT RightFinger3
                            {
                                OFFSET  -7.899780   0.000000  -1.078090
                                CHANNELS 3 Zrotation Xrotation Yrotation
                                JOINT RightFinger31
                                {
                                    OFFSET  -4.646920   0.000000   0.000000
                                    CHANNELS 3 Zrotation Xrotation Yrotation
                                    JOINT RightFinger32
                                    {
                                        OFFSET  -2.323470   0.000000   0.000000
                                        CHANNELS 3 Zrotation Xrotation Yrotation
                                        End Site
                                        {
                                            OFFSET  -2.273050   0.000000   0.000000
                                        }
                                    }
                                }
                            }
                            JOINT RightFinger4
                            {
                                OFFSET  -7.435090   0.000000  -3.252850
                                CHANNELS 3 Zrotation Xrotation Yrotation
                                JOINT RightFinger41
                                {
                                    OFFSET  -3.717550   0.000000   0.000000
                                    CHANNELS 3 Zrotation Xrotation Yrotation
                                    JOINT RightFinger42
                                    {
                                        OFFSET  -1.858770   0.000000   0.000000
                                        CHANNELS 3 Zrotation Xrotation Yrotation
                                        End Site
                                        {
                                            OFFSET  -1.818440   0.000000   0.000000
                                        }
                                    }
                                }
                            }
                        }
                    }
                }
            }
        }
    }
    JOINT LeftHip
    {
        OFFSET   9.783010   0.000000   0.000000
        CHANNELS 3 Zrotation Xrotation Yrotation
        JOINT LeftKnee
        {
            OFFSET   0.000070 -41.789100   0.000028
            CHANNELS 3 Zrotation Xrotation Yrotation
            JOINT LeftAnkle
            {
                OFFSET   0.000087 -41.133200  -0.000100
                CHANNELS 3 Zrotation Xrotation Yrotation
                JOINT LeftToe
                {
                    OFFSET   0.000000  -6.358960  14.674500
                    CHANNELS 3 Zrotation Xrotation Yrotation
                    End Site
                    {
                        OFFSET   0.000000   0.000000   3.913200
                    }
                }
            }
        }
    }
    JOINT RightHip
    {
        OFFSET  -9.783020   0.000000   0.000000
        CHANNELS 3 Zrotation Xrotation Yrotation
        JOINT RightKnee
        {
            OFFSET   0.000044 -41.789100  -0.000870
            CHANNELS 3 Zrotation Xrotation Yrotation
            JOINT RightAnkle
            {
                OFFSET  -0.000090 -41.133200  -0.000245
                CHANNELS 3 Zrotation Xrotation Yrotation
                JOINT RightToe
                {
                    OFFSET   0.000000  -6.358960  14.674500
                    CHANNELS 3 Zrotation Xrotation Yrotation
                    End Site
                    {
                        OFFSET   0.000000   0.000000   3.913200
                    }
                }
            }
        }
    }
}
MOTION
Frames: 4
Frame Time:   0.016667
  2.447470  89.437700  -0.108720  -1.375040  -0.576294   1.412910   0.762374   1.361410  -0.075931   1.527200   2.721680  -0.170059  -0.424296  -1.066560  -0.010782  -0.693013  -2.162480   1.478260  -5.049360   2.412680   8.036390 -79.479600   3.488410   0.447720   0.648347   8.744130 -15.342700  10.221800  -3.804530  -2.481710  42.616900  35.551500 -52.369600 -30.216100  -0.002289   0.006284 -10.108000   0.013970   0.002831 -32.662400  -0.510545   0.796347 -26.718500  -0.007881   0.000645 -18.702900  -0.005629   0.001574 -26.778000  -4.329700   8.517070 -27.407600   0.001890   0.005419 -18.253500  -0.001381  -0.010784 -28.353800  -4.567030   8.394330 -38.948600  -0.000524   0.000849 -25.939800   0.002002   0.000156 -35.341700  -5.557980   7.776680 -53.579500   0.002691  -0.002354 -35.684000   0.001525   0.000948   8.873850   5.379260   5.107990  69.408100  -3.749260  -0.725178   3.927880  -2.981480  13.884600 -10.410100  -0.163082   1.243440 -46.766400  42.212800  78.838400  28.414000   0.011527  -0.006113   9.207020   0.005861  -0.000793  27.606400   1.843860   3.520950  22.633400  -0.003775   0.002874  15.843800   0.002367   0.002537  27.740900   0.224372   0.426498  30.492500  -0.003274   0.006797  20.308000   0.003188   0.005010  27.668900  -1.952670  -3.717030  30.363000   0.001281  -0.001595  20.221700   0.000486   0.000895  29.166200  -2.048890  -3.664520  43.847600  -0.010848  -0.002987  29.202500   0.006337  -0.002059   3.453740   3.215780  -0.367150  -0.049445   0.142590  13.916600  -3.055630  -2.830330  -1.172950   0.000000   0.000000   0.000000  -2.497080   3.175300  -5.391170   0.984057   0.761860 -12.382200   0.752011  -2.230700   0.006523   0.000000   0.000000  -0.000000
  2.442730  89.437500  -0.126090  -1.370290  -0.598248   1.412920   0.762351   1.375170  -0.072947   1.527120   2.749240  -0.164273  -0.424286  -1.083710  -0.010792  -0.693218  -2.197500   1.481110  -5.060860   2.409150   8.039080 -79.479700   3.499340   0.444596   0.643551   8.726880 -15.330000  10.227400  -3.788290  -2.471730  42.615100  35.559800 -52.384200 -30.230300  -0.002296   0.006286 -10.115100   0.014104   0.002826 -32.660500  -0.503052   0.784722 -26.719100  -0.007889   0.000690 -18.703300  -0.005684   0.001576 -26.787400  -4.329810   8.512050 -27.446700   0.002028   0.005468 -18.279500  -0.001254  -0.010881 -28.354400  -4.565290   8.390130 -38.933000  -0.000524   0.000849 -25.929300   0.002146   0.000194 -35.327300  -5.553390   7.774250 -53.557600   0.002903  -0.002355 -35.669300   0.001640   0.001030   8.876700   5.357890   5.097370  69.412900  -3.705310  -0.717835   3.925280  -3.010860  13.880600 -10.414000  -0.132058   1.255480 -46.782300  42.218800  78.862300  28.397400   0.011531  -0.006123   9.198720   0.005866  -0.000797  27.599500   1.850230   3.534150  22.628100  -0.003777   0.002871  15.839900   0.002364   0.002532  27.740400   0.230278   0.437767  30.480800  -0.003270   0.006794  20.300200   0.003188   0.005008  27.669100  -1.952850  -3.712230  30.347400   0.001281  -0.001595  20.211400   0.000486   0.000894  29.158900  -2.049040  -3.659950  43.836700  -0.010849  -0.002988  29.195200   0.006340  -0.002060   3.448780   3.241360  -0.367315  -0.045188   0.117608  13.920600  -3.049150  -2.806330  -1.172650  -0.000000   0.000000   0.000000  -2.496770   3.176320  -5.391160   0.979466   0.778595 -12.384100   0.746583  -2.231180   0.008154   0.000000   0.000000  -0.000000
  2.435220  89.437200  -0.156127  -1.362670  -0.638534   1.412930   0.762352   1.402690  -0.068397   1.527070   2.804340  -0.155540  -0.424196  -1.122000  -0.010802  -0.691903  -2.275300   1.494230  -5.080500   2.399460   8.046870 -79.479800   3.532720   0.438593   0.636785   8.696210 -15.312600  10.235500  -3.772060  -2.457510  42.602200  35.564100 -52.405400 -30.254700  -0.002309   0.006293 -10.127400   0.014391   0.002821 -32.658600  -0.495559   0.773098 -26.723400  -0.007903   0.000789 -18.706400  -0.005795   0.001578 -26.804500  -4.329980   8.502970 -27.517300   0.002223   0.005571 -18.326500  -0.001042  -0.011084 -28.355600  -4.561910   8.382470 -38.917400  -0.000524   0.000849 -25.918900   0.002348   0.000256 -35.313500  -5.546140   7.768990 -53.535600   0.003200  -0.002358 -35.654700   0.001801   0.001144   8.881270   5.315890   5.086580  69.419300  -3.618220  -0.694160   3.917770  -3.052010  13.866900 -10.428300  -0.101034   1.272410 -46.800400  42.230800  78.897600  28.380900   0.011540  -0.006137   9.190420   0.005872  -0.000803  27.592500   1.856610   3.547360  22.622700  -0.003782   0.002861  15.835900   0.002359   0.002517  27.740000   0.236185   0.449035  30.469100  -0.003257   0.006786  20.292400   0.003189   0.005001  27.669300  -1.953030  -3.707440  30.331900   0.001282  -0.001594  20.201000   0.000487   0.000893  29.151600  -2.049180  -3.655390  43.825800  -0.010853  -0.002991  29.187900   0.006347  -0.002061   3.440730   3.285980  -0.367488  -0.037983   0.075018  13.926800  -3.037970  -2.765450  -1.170770  -0.000000   0.000000  -0.000000  -2.495280   3.182410  -5.391120   0.972289   0.804237 -12.387900   0.737685  -2.231650   0.011830   0.000000   0.000000  -0.000000
  2.430300  89.438500  -0.182424  -1.356970  -0.679896   1.409530   0.762447   1.435540  -0.066090   1.527270   2.870070  -0.151365  -0.421226  -1.174540  -0.010802  -0.687006  -2.381460   1.523720  -5.099110   2.383960   8.061990 -79.479700   3.596180   0.430196   0.635516   8.666160 -15.306600  10.240100  -3.775900  -2.450490  42.575500  35.552200 -52.424600 -30.281400  -0.002323   0.006310 -10.140700   0.014800   0.002832 -32.677100  -0.499083   0.777981 -26.740400  -0.007917   0.000927 -18.718300  -0.005943   0.001581 -26.822400  -4.329580   8.493480 -27.591200   0.002306   0.005713 -18.375700  -0.000830  -0.011362 -28.356800  -4.557740   8.374310 -38.938200  -0.000524   0.000849 -25.932800   0.002435   0.000319 -35.316900  -5.541040   7.760730 -53.539500   0.003328  -0.002363 -35.657300   0.001870   0.001193   8.885230   5.266410   5.086660  69.417900  -3.516460  -0.649110   3.904580  -3.064550  13.837500 -10.462100  -0.110539   1.278010 -46.797400  42.247500  78.914800  28.405900   0.011552  -0.006146   9.202960   0.005861  -0.000804  27.596900   1.854600   3.542270  22.626300  -0.003793   0.002845  15.838500   0.002358   0.002493  27.742300   0.233127   0.443182  30.474100  -0.003236   0.006771  20.295700   0.003190   0.004991  27.669300  -1.952600  -3.710600  30.339200   0.001283  -0.001594  20.205900   0.000488   0.000889  29.155100  -2.048840  -3.658360  43.830800  -0.010861  -0.002997  29.191200   0.006358  -0.002063   3.433350   3.336580  -0.367202  -0.030458   0.029563  13.932100  -3.025790  -2.721920  -1.167190  -0.000000   0.000000   0.000000  -2.492230   3.198700  -5.385640   0.967726   0.818916 -12.393800   0.730869  -2.225650   0.016823  -0.000000   0.000000   0.000000
